<svg xmlns="http://www.w3.org/2000/svg" width="303.581" height="62.439" viewBox="0 0 303.581 62.439">
  <g id="Artboard_1" data-name="Artboard 1" transform="translate(-6.017 -5.85)">
    <g id="Group_18" data-name="Group 18" transform="translate(6.017 5.85)">
      <path id="Path_1" data-name="Path 1" d="M72.286,7.172,59.4,20.622a1.846,1.846,0,0,0-.189.336L47.149,66.028a.774.774,0,0,1-1.322.315L6.212,21.293a.775.775,0,0,1,.021-1.049L19.787,6.081a.811.811,0,0,1,.567-.231H71.74a.776.776,0,0,1,.567,1.3Z" transform="translate(-6.017 -5.85)" fill="#9c1aaa"/>
      <path id="Path_2" data-name="Path 2" d="M68.272,22.11,27.713,67.243a.525.525,0,0,1-.9-.483L39.148,21.879a.868.868,0,0,1,.126-.231L53.479,6.792a.532.532,0,0,1,.755,0l14,14.6a.52.52,0,0,1,0,.713Z" transform="translate(16.797 -4.988)"/>
    </g>
    <g id="Group_19" data-name="Group 19" transform="translate(104.032 14.012)">
      <path id="Path_3" data-name="Path 3" d="M61.962,10.23V23.554a4.365,4.365,0,0,1-1.238,3.231A4.467,4.467,0,0,1,57.43,28a4.72,4.72,0,0,1-3.42-1.3,4.825,4.825,0,0,1-1.28-3.5h1.784a3.775,3.775,0,0,0,.713,2.35,2.566,2.566,0,0,0,2.182.9,2.479,2.479,0,0,0,2.1-.839,3.073,3.073,0,0,0,.671-2.056V10.23h1.763Z" transform="translate(-52.73 -9.202)" fill="#9c1aaa"/>
      <path id="Path_4" data-name="Path 4" d="M72.069,19.734H60.654A5.3,5.3,0,0,0,61.41,22.4a4.559,4.559,0,0,0,1.784,1.679,5.239,5.239,0,0,0,2.413.567,4.755,4.755,0,0,0,2.875-.839,3.9,3.9,0,0,0,1.553-2.245H71.9a5.833,5.833,0,0,1-2.161,3.294,6.605,6.605,0,0,1-4.134,1.28,7.083,7.083,0,0,1-3.483-.86A6.229,6.229,0,0,1,59.71,22.8a7.613,7.613,0,0,1-.86-3.735,7.937,7.937,0,0,1,.86-3.756A6.045,6.045,0,0,1,62.1,12.83a7.106,7.106,0,0,1,3.5-.86,6.754,6.754,0,0,1,3.441.86,5.843,5.843,0,0,1,2.266,2.308,6.62,6.62,0,0,1,.8,3.21,12.281,12.281,0,0,1-.042,1.385Zm-2.35-4.05a4.223,4.223,0,0,0-1.742-1.637,5.223,5.223,0,0,0-2.413-.546,4.837,4.837,0,0,0-3.357,1.259,5.024,5.024,0,0,0-1.532,3.546h9.673a5.16,5.16,0,0,0-.609-2.623Z" transform="translate(-46.009 -7.291)" fill="#9c1aaa"/>
      <path id="Path_5" data-name="Path 5" d="M85.685,12.07l-4.3,13.744H79.621l-3.8-11.54-3.8,11.54H70.241L65.94,12.07h1.784l3.42,11.96L75,12.07h1.763l3.8,11.981,3.4-11.981h1.742Z" transform="translate(-38.222 -7.181)" fill="#9c1aaa"/>
      <path id="Path_6" data-name="Path 6" d="M89.309,19.734H77.894A5.3,5.3,0,0,0,78.65,22.4a4.559,4.559,0,0,0,1.784,1.679,5.239,5.239,0,0,0,2.413.567,4.755,4.755,0,0,0,2.875-.839,3.9,3.9,0,0,0,1.553-2.245h1.867a5.833,5.833,0,0,1-2.161,3.294,6.605,6.605,0,0,1-4.134,1.28,7.083,7.083,0,0,1-3.483-.86A6.229,6.229,0,0,1,76.95,22.8a7.613,7.613,0,0,1-.86-3.735,7.936,7.936,0,0,1,.86-3.756,6.045,6.045,0,0,1,2.392-2.476,7.106,7.106,0,0,1,3.5-.86,6.754,6.754,0,0,1,3.441.86,5.843,5.843,0,0,1,2.266,2.308,6.62,6.62,0,0,1,.8,3.21,12.281,12.281,0,0,1-.042,1.385Zm-2.35-4.05a4.223,4.223,0,0,0-1.742-1.637A5.223,5.223,0,0,0,82.8,13.5a4.837,4.837,0,0,0-3.357,1.259,5.024,5.024,0,0,0-1.532,3.546h9.673a5.16,5.16,0,0,0-.608-2.623Z" transform="translate(-27.075 -7.291)" fill="#9c1aaa"/>
      <path id="Path_7" data-name="Path 7" d="M85.713,9.74V28.372H83.95V9.74h1.763Z" transform="translate(-18.442 -9.74)" fill="#9c1aaa"/>
      <path id="Path_8" data-name="Path 8" d="M88.463,9.74V28.372H86.7V9.74h1.763Z" transform="translate(-15.422 -9.74)" fill="#9c1aaa"/>
      <path id="Path_9" data-name="Path 9" d="M102.269,19.734H90.854A5.3,5.3,0,0,0,91.61,22.4a4.559,4.559,0,0,0,1.784,1.679,5.239,5.239,0,0,0,2.413.567,4.755,4.755,0,0,0,2.875-.839,3.9,3.9,0,0,0,1.553-2.245H102.1a5.833,5.833,0,0,1-2.161,3.294,6.605,6.605,0,0,1-4.134,1.28,7.083,7.083,0,0,1-3.483-.86A6.229,6.229,0,0,1,89.91,22.8a7.613,7.613,0,0,1-.86-3.735,7.936,7.936,0,0,1,.86-3.756A6.045,6.045,0,0,1,92.3,12.83a7.106,7.106,0,0,1,3.5-.86,6.754,6.754,0,0,1,3.441.86,5.843,5.843,0,0,1,2.266,2.308,6.62,6.62,0,0,1,.8,3.21,12.281,12.281,0,0,1-.042,1.385Zm-2.35-4.05a4.223,4.223,0,0,0-1.742-1.637,5.223,5.223,0,0,0-2.413-.546,4.837,4.837,0,0,0-3.357,1.259,5.025,5.025,0,0,0-1.532,3.546h9.673a5.16,5.16,0,0,0-.609-2.623Z" transform="translate(-12.841 -7.291)" fill="#9c1aaa"/>
      <path id="Path_10" data-name="Path 10" d="M100.445,12.653a5.8,5.8,0,0,1,2.938-.713v1.846H102.9a4.366,4.366,0,0,0-3.063,1.028,4.422,4.422,0,0,0-1.154,3.441v7.68H96.92V12.192h1.763v2.434a4.33,4.33,0,0,1,1.784-1.993Z" transform="translate(-4.198 -7.324)" fill="#9c1aaa"/>
      <path id="Path_11" data-name="Path 11" d="M102.549,25.01a3.994,3.994,0,0,1-1.679-2.98h1.8a2.528,2.528,0,0,0,1.091,1.867,4.4,4.4,0,0,0,2.6.713,3.452,3.452,0,0,0,2.245-.671,2.1,2.1,0,0,0,.818-1.679,1.518,1.518,0,0,0-.462-1.154,3.172,3.172,0,0,0-1.154-.713c-.462-.168-1.091-.357-1.867-.567a23.887,23.887,0,0,1-2.5-.8,4.338,4.338,0,0,1-1.616-1.2,3.422,3.422,0,0,1-.063-3.987,4.06,4.06,0,0,1,1.721-1.364,5.994,5.994,0,0,1,2.518-.5,5.493,5.493,0,0,1,3.567,1.112,4.176,4.176,0,0,1,1.469,3.084h-1.763a2.646,2.646,0,0,0-.944-1.951,4.112,4.112,0,0,0-4.532-.1,1.927,1.927,0,0,0-.839,1.553,1.861,1.861,0,0,0,.483,1.322,3.507,3.507,0,0,0,1.217.8c.483.189,1.133.4,1.972.65a19.679,19.679,0,0,1,2.371.776,4.164,4.164,0,0,1,1.511,1.112,2.971,2.971,0,0,1,.65,1.93,3.379,3.379,0,0,1-.609,1.972,4.029,4.029,0,0,1-1.679,1.364,5.829,5.829,0,0,1-2.5.5,6.327,6.327,0,0,1-3.861-1.091Z" transform="translate(0.14 -7.28)" fill="#9c1aaa"/>
      <path id="Path_12" data-name="Path 12" d="M108.249,10.23h2.035l-2.224,5.434h-1.28Z" transform="translate(6.631 -9.202)" fill="#9c1aaa"/>
      <path id="Path_13" data-name="Path 13" d="M66.217,33.335a4.25,4.25,0,0,1,.923,2.728,4.347,4.347,0,0,1-1.553,3.5,6.561,6.561,0,0,1-4.322,1.3H53.04V23.2h7.952a6.517,6.517,0,0,1,4.217,1.238A4.1,4.1,0,0,1,66.742,27.8a4.061,4.061,0,0,1-.818,2.6,4.122,4.122,0,0,1-2.182,1.427,4.116,4.116,0,0,1,2.476,1.532Zm-8.876-3h2.812a2.433,2.433,0,0,0,1.616-.462,1.684,1.684,0,0,0,.567-1.364,1.728,1.728,0,0,0-.567-1.385,2.473,2.473,0,0,0-1.616-.483H57.341ZM62.188,36.9a1.737,1.737,0,0,0,.588-1.427,1.867,1.867,0,0,0-.608-1.469,2.5,2.5,0,0,0-1.7-.525H57.341v3.9H60.51a2.663,2.663,0,0,0,1.679-.483Z" transform="translate(-52.39 5.043)"/>
      <path id="Path_14" data-name="Path 14" d="M65.251,22.74V41.373h-4.3V22.74h4.3Z" transform="translate(-43.702 4.537)"/>
      <path id="Path_15" data-name="Path 15" d="M67.626,38.406a6.527,6.527,0,0,1-2.6-2.518,7.525,7.525,0,0,1-.944-3.819,7.381,7.381,0,0,1,.965-3.819,6.5,6.5,0,0,1,2.623-2.539,8.355,8.355,0,0,1,7.47,0,6.494,6.494,0,0,1,2.623,2.539,7.534,7.534,0,0,1,.965,3.819,7.381,7.381,0,0,1-.965,3.819,6.686,6.686,0,0,1-2.644,2.539,7.911,7.911,0,0,1-3.735.881,7.767,7.767,0,0,1-3.714-.881Zm5.812-3.756a3.577,3.577,0,0,0,.86-2.6,3.663,3.663,0,0,0-.839-2.6,2.72,2.72,0,0,0-2.077-.9,2.764,2.764,0,0,0-2.1.9,3.725,3.725,0,0,0-.839,2.6,3.756,3.756,0,0,0,.818,2.6,2.646,2.646,0,0,0,2.056.9,2.764,2.764,0,0,0,2.1-.9Z" transform="translate(-40.265 6.833)"/>
      <path id="Path_16" data-name="Path 16" d="M72.622,28.229a6.142,6.142,0,0,1,2.5-2.518,7.485,7.485,0,0,1,3.672-.881,7.015,7.015,0,0,1,4.427,1.385,6.616,6.616,0,0,1,2.329,3.9H80.973A2.209,2.209,0,0,0,78.728,28.5a2.252,2.252,0,0,0-1.888.923,4.287,4.287,0,0,0-.713,2.623,4.153,4.153,0,0,0,.713,2.623,2.279,2.279,0,0,0,1.888.923,2.225,2.225,0,0,0,2.245-1.616h4.574A6.677,6.677,0,0,1,83.2,37.86a6.884,6.884,0,0,1-4.406,1.406,7.485,7.485,0,0,1-3.672-.881,6.27,6.27,0,0,1-2.5-2.518,7.961,7.961,0,0,1-.9-3.819A7.728,7.728,0,0,1,72.622,28.229Z" transform="translate(-31.874 6.833)"/>
      <path id="Path_17" data-name="Path 17" d="M87.972,41.372l-4.28-5.9v5.9h-4.3V22.74h4.3v10.3l4.259-5.707h5.309l-5.833,7.05,5.9,7.008h-5.33Z" transform="translate(-23.451 4.537)"/>
      <path id="Path_18" data-name="Path 18" d="M93.651,23.2V40.867h-4.3V23.2Z" transform="translate(-12.512 5.043)"/>
      <path id="Path_19" data-name="Path 19" d="M105.407,26.456a6.229,6.229,0,0,1,1.469,4.385v8.2h-4.28V31.408a3.047,3.047,0,0,0-.734-2.182,2.531,2.531,0,0,0-1.972-.776,2.561,2.561,0,0,0-1.972.776,3.118,3.118,0,0,0-.734,2.182v7.638h-4.3V24.987h4.3v1.867a4.486,4.486,0,0,1,1.763-1.469,5.668,5.668,0,0,1,2.5-.546,5.109,5.109,0,0,1,3.945,1.595Z" transform="translate(-8.635 6.844)"/>
      <path id="Path_20" data-name="Path 20" d="M103.809,38.668a5.437,5.437,0,0,1-2.266-1.721,4.585,4.585,0,0,1-.923-2.455h4.259a1.589,1.589,0,0,0,.671,1.175,2.468,2.468,0,0,0,1.49.462,2.074,2.074,0,0,0,1.238-.315.964.964,0,0,0,.441-.818.974.974,0,0,0-.629-.9,14.775,14.775,0,0,0-2.035-.65,19.946,19.946,0,0,1-2.518-.734,4.227,4.227,0,0,1-1.742-1.238,3.4,3.4,0,0,1-.734-2.287,3.945,3.945,0,0,1,.671-2.2,4.292,4.292,0,0,1,1.972-1.574,7.628,7.628,0,0,1,3.084-.588,6.293,6.293,0,0,1,4.176,1.3,5.131,5.131,0,0,1,1.742,3.483h-3.987a1.621,1.621,0,0,0-.65-1.154,2.18,2.18,0,0,0-1.427-.42,1.992,1.992,0,0,0-1.154.294.913.913,0,0,0-.4.8.946.946,0,0,0,.65.9,10.02,10.02,0,0,0,1.993.608,19.555,19.555,0,0,1,2.539.8,4.162,4.162,0,0,1,1.721,1.259,3.576,3.576,0,0,1,.776,2.329,3.715,3.715,0,0,1-.692,2.2,4.665,4.665,0,0,1-1.993,1.532,7.436,7.436,0,0,1-3,.546,8.132,8.132,0,0,1-3.273-.629Z" transform="translate(-0.135 6.822)"/>
      <path id="Path_21" data-name="Path 21" d="M121.615,24.92V38.978h-4.3V37.069a4.628,4.628,0,0,1-1.784,1.49,5.437,5.437,0,0,1-2.476.567,5.6,5.6,0,0,1-2.854-.713,4.826,4.826,0,0,1-1.909-2.077,6.936,6.936,0,0,1-.671-3.189v-8.2h4.28v7.638a3.047,3.047,0,0,0,.734,2.182,2.531,2.531,0,0,0,1.972.776,2.578,2.578,0,0,0,1.993-.776,3.117,3.117,0,0,0,.734-2.182V24.941h4.3Z" transform="translate(7.553 6.932)"/>
      <path id="Path_22" data-name="Path 22" d="M121.949,25.521a4.913,4.913,0,0,1,2.518-.671V29.4h-1.175a3.6,3.6,0,0,0-2.413.692,3.061,3.061,0,0,0-.8,2.434v6.526h-4.3V25h4.3v2.35a5.6,5.6,0,0,1,1.888-1.825Z" transform="translate(16.515 6.855)"/>
      <path id="Path_23" data-name="Path 23" d="M121.308,28.229a6.066,6.066,0,0,1,2.224-2.518,5.838,5.838,0,0,1,3.147-.881,5.416,5.416,0,0,1,2.6.608A4.226,4.226,0,0,1,131,27.033V25.04h4.3V39.1H131V37.1a4.925,4.925,0,0,1-1.742,1.595,5.475,5.475,0,0,1-2.6.608,5.66,5.66,0,0,1-3.126-.9,6.259,6.259,0,0,1-2.224-2.539,8.457,8.457,0,0,1-.818-3.819,8.366,8.366,0,0,1,.818-3.8Zm8.813,1.28a2.857,2.857,0,0,0-2.182-.923,2.965,2.965,0,0,0-2.182.923,3.5,3.5,0,0,0-.9,2.539,3.5,3.5,0,0,0,.9,2.56,2.876,2.876,0,0,0,2.182.944,2.965,2.965,0,0,0,2.182-.923,3.448,3.448,0,0,0,.9-2.539,3.448,3.448,0,0,0-.9-2.539Z" transform="translate(21.688 6.833)"/>
      <path id="Path_24" data-name="Path 24" d="M141.567,26.456a6.229,6.229,0,0,1,1.469,4.385v8.2h-4.28V31.408a3.047,3.047,0,0,0-.734-2.182,2.531,2.531,0,0,0-1.972-.776,2.561,2.561,0,0,0-1.972.776,3.118,3.118,0,0,0-.734,2.182v7.638h-4.3V24.987h4.3v1.867a4.486,4.486,0,0,1,1.763-1.469,5.668,5.668,0,0,1,2.5-.546,5.109,5.109,0,0,1,3.945,1.595Z" transform="translate(31.078 6.844)"/>
      <path id="Path_25" data-name="Path 25" d="M137.622,28.229a6.142,6.142,0,0,1,2.5-2.518,7.485,7.485,0,0,1,3.672-.881,7.015,7.015,0,0,1,4.427,1.385,6.616,6.616,0,0,1,2.329,3.9h-4.574a2.209,2.209,0,0,0-2.245-1.616,2.252,2.252,0,0,0-1.888.923,4.287,4.287,0,0,0-.713,2.623,4.152,4.152,0,0,0,.713,2.623,2.279,2.279,0,0,0,1.888.923,2.225,2.225,0,0,0,2.245-1.616h4.574a6.677,6.677,0,0,1-2.35,3.882,6.884,6.884,0,0,1-4.406,1.406,7.485,7.485,0,0,1-3.672-.881,6.271,6.271,0,0,1-2.5-2.518,7.961,7.961,0,0,1-.9-3.819A7.728,7.728,0,0,1,137.622,28.229Z" transform="translate(39.512 6.833)"/>
      <path id="Path_26" data-name="Path 26" d="M158.017,33.076h-9.736a2.924,2.924,0,0,0,.839,1.993,2.606,2.606,0,0,0,1.825.692,2.281,2.281,0,0,0,2.245-1.364h4.574a6.035,6.035,0,0,1-1.28,2.5,6.4,6.4,0,0,1-2.308,1.742,7.4,7.4,0,0,1-3.105.629,7.485,7.485,0,0,1-3.672-.881,6.321,6.321,0,0,1-2.518-2.518,7.728,7.728,0,0,1-.9-3.819,7.728,7.728,0,0,1,.9-3.819,6.142,6.142,0,0,1,2.5-2.518,8.133,8.133,0,0,1,7.323-.021,6.142,6.142,0,0,1,2.476,2.434,7.461,7.461,0,0,1,.9,3.693A8.845,8.845,0,0,1,158,33.076Zm-4.322-2.392a2.225,2.225,0,0,0-.755-1.763,2.757,2.757,0,0,0-1.888-.65,2.682,2.682,0,0,0-1.825.629,2.778,2.778,0,0,0-.923,1.784h5.393Z" transform="translate(47.486 6.833)"/>
    </g>
  </g>
</svg>
